<svg xmlns="http://www.w3.org/2000/svg" version="1.1" xmlns:xlink="http://www.w3.org/1999/xlink" xmlns:svgjs="http://svgjs.com/svgjs" width="300" height="300"><svg width="300" height="300" viewBox="0 0 300 300" fill="none" xmlns="http://www.w3.org/2000/svg">
<path d="M8 96.5879V68H142.503V96.5879H92.3642V232H58.1387V96.5879H8Z" fill="#090D1F"></path>
<path d="M164.654 232V68H230.226C242.274 68 252.323 69.7884 260.373 73.3652C268.423 76.9421 274.474 81.9069 278.525 88.2598C282.577 94.5592 284.603 101.82 284.603 110.041C284.603 116.447 283.323 122.079 280.764 126.938C278.205 131.742 274.687 135.693 270.209 138.789C265.784 141.832 260.72 143.994 255.015 145.275V146.877C261.253 147.144 267.09 148.906 272.528 152.162C278.019 155.419 282.47 159.983 285.882 165.855C289.294 171.674 291 178.615 291 186.676C291 195.378 288.841 203.145 284.523 209.979C280.258 216.758 273.941 222.124 265.571 226.074C257.201 230.025 246.885 232 234.624 232H164.654ZM199.279 203.652H227.507C237.156 203.652 244.193 201.811 248.618 198.127C253.043 194.39 255.255 189.425 255.255 183.232C255.255 178.695 254.162 174.691 251.977 171.221C249.791 167.751 246.672 165.028 242.621 163.053C238.622 161.077 233.851 160.09 228.307 160.09H199.279V203.652ZM199.279 136.627H224.948C229.693 136.627 233.904 135.799 237.583 134.145C241.314 132.436 244.247 130.034 246.379 126.938C248.565 123.841 249.658 120.131 249.658 115.807C249.658 109.881 247.552 105.103 243.34 101.473C239.182 97.8424 233.264 96.0273 225.588 96.0273H199.279V136.627Z" fill="#090D1F"></path>
</svg><style>@media (prefers-color-scheme: light) { :root { filter: none; } }
</style></svg>