<svg xmlns="http://www.w3.org/2000/svg" xmlns:xlink="http://www.w3.org/1999/xlink" xmlns:svgjs="http://svgjs.com/svgjs" width="300" height="300"><svg width="300" height="300" viewBox="0 0 300 300" fill="none" xmlns="http://www.w3.org/2000/svg"><path d="M8 96.588V68h134.503v28.588H92.364V232H58.14V96.588H8zM164.654 232V68h65.572c12.048 0 22.097 1.788 30.147 5.365 8.05 3.577 14.101 8.542 18.152 14.895 4.052 6.3 6.078 13.56 6.078 21.781 0 6.406-1.28 12.038-3.839 16.897-2.559 4.804-6.077 8.755-10.555 11.851-4.425 3.043-9.489 5.205-15.194 6.486v1.602c6.238.267 12.075 2.029 17.513 5.285 5.491 3.257 9.942 7.821 13.354 13.693 3.412 5.819 5.118 12.76 5.118 20.821 0 8.702-2.159 16.469-6.477 23.303-4.265 6.779-10.582 12.145-18.952 16.095-8.37 3.951-18.686 5.926-30.947 5.926h-69.97zm34.625-28.348h28.228c9.649 0 16.686-1.841 21.111-5.525 4.425-3.737 6.637-8.702 6.637-14.895 0-4.537-1.093-8.541-3.278-12.011-2.186-3.47-5.305-6.193-9.356-8.168-3.999-1.976-8.77-2.963-14.314-2.963h-29.028v43.562zm0-67.025h25.669c4.745 0 8.956-.828 12.635-2.482 3.731-1.709 6.664-4.111 8.796-7.207 2.186-3.097 3.279-6.807 3.279-11.131 0-5.926-2.106-10.704-6.318-14.334-4.158-3.63-10.076-5.446-17.752-5.446h-26.309v40.6z" fill="#090D1F"/></svg><style>@media (prefers-color-scheme:light){:root{filter:none}}</style></svg>