<svg width="24" height="24" viewBox="0 0 24 24" fill="none" xmlns="http://www.w3.org/2000/svg"><path d="M11.98 22.241h0-.008C6.62 22 2.15 17.686 1.78 12.445h0C1.454 7.94 4.059 3.73 8.263 1.96c.552-.23.928-.237 1.168-.19.24.049.387.16.47.246h0l.005.007a.877.877 0 01.238.46c.045.229.035.585-.192 1.106v.001a8.696 8.696 0 00-.722 3.552c.022 4.703 3.919 8.675 8.668 8.867a9.148 9.148 0 002.02-.138h.001c.583-.106.946-.034 1.165.063a.87.87 0 01.4.338.898.898 0 01.13.515c-.01.24-.103.598-.456 1.075l-.002.002c-2.024 2.77-5.243 4.385-8.696 4.385-.173 0-.328 0-.48-.009zm-9.71-9.837v.002c.359 5.018 4.628 9.112 9.716 9.334a10.231 10.231 0 008.756-4.164h0l.004-.005a2.48 2.48 0 00.311-.555l.226-.602-.639-.07a2.066 2.066 0 00-.648.035 9.967 9.967 0 01-2.127.141h0c-5.017-.199-9.12-4.414-9.15-9.361 0-1.312.256-2.572.776-3.755.128-.281.157-.485.17-.592l.07-.562H9.17c-.17 0-.396.04-.704.17-4.006 1.68-6.49 5.7-6.196 9.983z" stroke="#090D1F"/></svg>